<svg width="82" height="77" viewBox="0 0 82 77" fill="none" xmlns="http://www.w3.org/2000/svg">
<path d="M2.13084 66.4766C-0.301054 68.5683 -0.57519 72.2339 1.51854 74.664C3.61227 77.0941 7.28101 77.3685 9.71291 75.2768L2.13084 66.4766ZM81.8309 11.0043C82.07 7.80688 79.6697 5.02088 76.4696 4.78155L24.3209 0.881593C21.1208 0.642272 18.3328 3.04027 18.0937 6.23766C17.8546 9.43506 20.2549 12.2211 23.455 12.4604L69.8094 15.927L66.3457 62.2422C66.1066 65.4396 68.5069 68.2256 71.707 68.4649C74.9071 68.7042 77.6951 66.3063 77.9343 63.1089L81.8309 11.0043ZM9.71291 75.2768L79.8277 14.9711L72.2456 6.17082L2.13084 66.4766L9.71291 75.2768Z" fill="black"/>
</svg>
